{"title":"WALT DISNEYS-THE SEARCH FOR SANTA PAWS-1080P BLU RAY.MKV BY WINK","uid":5968650,"size":1205079054,"categoryP":"video","categoryS":"hd___movies","magnet":"?xt=urn:btih:64066fcf73c51712a7eccc2bc89d9dda4f2f25d0&amp;dn=WALT+DISNEYS-THE+SEARCH+FOR+SANTA+PAWS-1080P+BLU+RAY.MKV+BY+WINK&amp;tr=udp%3A%2F%2Ftracker.openbittorrent.com%3A80&amp;tr=udp%3A%2F%2Fopen.demonii.com%3A1337&amp;tr=udp%3A%2F%2Ftracker.coppersurfer.tk%3A6969&amp;tr=udp%3A%2F%2Fexodus.desync.com%3A6969","seeders":1,"leechers":0,"uploader":"alanwatson","files":-1,"time":1290199762,"description":"ok people take it easy,this is my first ever blue ray rip&lt;--------\nleave comments,or any comments on how to improve it\n\nUpon his 1600th birthday, Santa Claus is given a very special gift: a white, fluffy, stuffed toy puppy which is brought to life by the Great Christmas Icicle (turning him into Santa Paws). When Santa loses his memory and becomes lost in New York, Paws and his new friends must find him and his magic crystal in order to restore Christmas. Along the way, they try to brighten the lives of Quinn and Will, a couple orphans whose only wish is to have a family.\n\n\n\nFormat : Matroska\nFile size : 1.12 GiB\nDuration : 1h 36mn\nOverall bit rate : 1 665 Kbps\nMovie name : 00021\nEncoded date : UTC 2010-11-19 12:00:10\nWriting application : mkvmerge v4.3.0 ('Escape from the Island') built on Sep 5 2010 10:30:51\nWriting library : libebml v1.0.0 + libmatroska v1.0.0\n\nVideo\nID : 1\nFormat : AVC\nFormat/Info : Advanced Video Codec\nFormat profile : &lt;a class=&quot;__cf_email__&quot; href=&quot;/cdn-cgi/l/email-protection&quot; data-cfemail=&quot;723a1b151a323e465c42&quot;&gt;[email&amp;#160;protected]&lt;/a&gt;&lt;script cf-hash='f9e31' type=&quot;text/javascript&quot;&gt;\n/* &lt;![CDATA[ */!function(){try{var t=&quot;currentScript&quot;in document?document.currentScript:function(){for(var t=document.getElementsByTagName(&quot;script&quot;),e=t.length;e--;)if(t[e].getAttribute(&quot;cf-hash&quot;))return t[e]}();if(t&amp;&amp;t.previousSibling){var e,r,n,i,c=t.previousSibling,a=c.getAttribute(&quot;data-cfemail&quot;);if(a){for(e=&quot;&quot;,r=parseInt(a.substr(0,2),16),n=2;a.length-n;n+=2)i=parseInt(a.substr(n,2),16)^r,e+=String.fromCharCode(i);e=document.createTextNode(e),c.parentNode.replaceChild(e,c)}}}catch(u){}}();/* ]]&gt; */&lt;/script&gt;\nFormat settings, CABAC : Yes\nFormat settings, ReFrames : 3 frames\nFormat settings, GOP : M=4, N=32\nCodec ID : V_MPEG4/ISO/AVC\nDuration : 1h 36mn\nBit rate mode : Variable\nBit rate : 1 025 Kbps\nMaximum bit rate : 25.0 Mbps\nWidth : 1 920 pixels\nHeight : 1 080 pixels\nDisplay aspect ratio : 16:9\nFrame rate : 23.976 fps\nColor space : YUV\nChroma subsampling : 4:2:0\nBit depth : 8 bits\nScan type : Progressive\nBits/(Pixel*Frame) : 0.021\nStream size : 685 MiB (60%)\nWriting library : x264 core 105 r1732 2b04482\n\nAudio\nID : 2\nFormat : AC-3\nFormat/Info : Audio Coding 3\nMode extension : CM (complete main)\nCodec ID : A_AC3\nDuration : 1h 36mn\nBit rate mode : Constant\nBit rate : 640 Kbps\nChannel(s) : 6 channels\nChannel positions : Front: L C R, Side: L R, LFE\nSampling rate : 48.0 KHz\nBit depth : 16 bits\nStream size : 442 MiB (38%)\nLanguage : English","torrent":{"xt":"urn:btih:64066fcf73c51712a7eccc2bc89d9dda4f2f25d0","amp;dn":"WALT+DISNEYS-THE+SEARCH+FOR+SANTA+PAWS-1080P+BLU+RAY.MKV+BY+WINK","amp;tr":["udp%3A%2F%2Ftracker.openbittorrent.com%3A80","udp%3A%2F%2Fopen.demonii.com%3A1337","udp%3A%2F%2Ftracker.coppersurfer.tk%3A6969","udp%3A%2F%2Fexodus.desync.com%3A6969"],"infoHash":"64066fcf73c51712a7eccc2bc89d9dda4f2f25d0","infoHashBuffer":{"type":"Buffer","data":[100,6,111,207,115,197,23,18,167,236,204,43,200,157,157,218,79,47,37,208]},"announce":[],"urlList":[]}}